<?xml version="1.0" encoding="UTF-8"?>
<svg xmlns="http://www.w3.org/2000/svg" xmlns:xlink="http://www.w3.org/1999/xlink" width="24pt" height="24pt" viewBox="0 0 24 24" version="1.1">
<g id="surface1">
<path style=" stroke:none;fill-rule:nonzero;fill:rgb(0%,0%,0%);fill-opacity:1;" d="M 0 12.003906 L 0 24.011719 L 24 24.011719 L 24 0 L 0 0 Z M 13.359375 2.746094 C 17.539062 3.292969 20.804688 6.441406 21.480469 10.570312 C 21.601562 11.3125 21.601562 12.648438 21.484375 13.40625 C 21.015625 16.390625 19.140625 18.957031 16.421875 20.332031 C 14.234375 21.4375 11.648438 21.636719 9.261719 20.886719 C 8.730469 20.71875 7.828125 20.3125 7.335938 20.019531 C 4.21875 18.164062 2.433594 14.652344 2.804688 11.085938 C 3.214844 7.070312 6.15625 3.777344 10.113281 2.902344 C 10.433594 2.828125 10.859375 2.753906 11.058594 2.726562 C 11.660156 2.660156 12.753906 2.667969 13.359375 2.746094 Z M 13.359375 2.746094 "/>
<path style=" stroke:none;fill-rule:nonzero;fill:rgb(0%,0%,0%);fill-opacity:1;" d="M 11.539062 6.914062 C 11.195312 7.511719 10.148438 9.296875 9.226562 10.890625 C 8.296875 12.484375 7.191406 14.386719 6.761719 15.117188 L 5.984375 16.457031 L 6.503906 16.941406 C 7.675781 18.039062 7.84375 18.179688 7.914062 18.132812 C 7.953125 18.113281 8.746094 17.558594 9.671875 16.90625 L 11.351562 15.71875 L 10.28125 15.691406 L 9.203125 15.667969 L 9.496094 15.171875 C 9.648438 14.902344 10.304688 13.777344 10.945312 12.671875 C 11.589844 11.570312 12.128906 10.648438 12.148438 10.628906 C 12.171875 10.609375 12.433594 11.019531 12.734375 11.542969 C 13.039062 12.070312 13.695312 13.199219 14.195312 14.054688 C 14.691406 14.910156 15.101562 15.628906 15.101562 15.648438 C 15.101562 15.671875 14.621094 15.699219 14.039062 15.703125 L 12.976562 15.71875 L 14.75 16.925781 C 15.71875 17.589844 16.546875 18.136719 16.570312 18.148438 C 16.601562 18.160156 17.015625 17.78125 17.496094 17.308594 L 18.363281 16.445312 L 16.738281 13.652344 C 15.84375 12.125 14.464844 9.753906 13.675781 8.390625 C 12.886719 7.03125 12.21875 5.894531 12.199219 5.875 C 12.183594 5.855469 11.886719 6.320312 11.539062 6.914062 Z M 11.539062 6.914062 "/>
</g>
</svg>
