<?xml version="1.0" encoding="UTF-8"?>
<svg xmlns="http://www.w3.org/2000/svg" xmlns:xlink="http://www.w3.org/1999/xlink" width="24pt" height="24pt" viewBox="0 0 24 24" version="1.1">
<g id="surface1">
<path style=" stroke:none;fill-rule:nonzero;fill:rgb(0%,0%,0%);fill-opacity:1;" d="M 2.25 0.0742188 C 1.46875 0.242188 0.664062 0.871094 0.308594 1.59375 C -0.0195312 2.269531 0 1.589844 0 12 C 0 22.410156 -0.0195312 21.730469 0.308594 22.40625 C 0.546875 22.894531 1.105469 23.453125 1.59375 23.691406 C 2.269531 24.019531 1.589844 24 12 24 C 22.410156 24 21.730469 24.019531 22.40625 23.691406 C 22.894531 23.453125 23.453125 22.894531 23.691406 22.40625 C 24.019531 21.730469 24 22.410156 24 12 C 24 1.589844 24.019531 2.269531 23.691406 1.59375 C 23.453125 1.105469 22.894531 0.546875 22.40625 0.308594 C 21.730469 -0.0195312 22.414062 0 11.976562 0.00390625 C 4.082031 0.00390625 2.503906 0.0195312 2.25 0.0742188 Z M 12.5625 2.664062 C 12.804688 2.789062 13.015625 2.921875 13.035156 2.957031 C 13.121094 3.125 13.242188 3.65625 13.242188 3.84375 C 13.238281 4.214844 13.195312 4.292969 12.957031 4.386719 L 12.742188 4.472656 L 12.765625 4.726562 C 12.777344 4.867188 12.800781 4.992188 12.820312 5.007812 C 12.84375 5.03125 13.203125 4.953125 13.601562 4.847656 C 13.648438 4.832031 13.703125 4.734375 13.734375 4.589844 C 13.796875 4.351562 13.875 4.34375 13.875 4.585938 C 13.875 4.65625 13.917969 4.707031 13.992188 4.734375 C 14.058594 4.757812 14.109375 4.800781 14.109375 4.828125 C 14.109375 4.855469 14.808594 4.878906 16.140625 4.882812 C 18.039062 4.898438 18.164062 4.902344 18.148438 4.976562 C 18.140625 5.03125 18.164062 5.0625 18.210938 5.0625 C 18.265625 5.0625 18.28125 4.996094 18.28125 4.710938 C 18.28125 4.429688 18.296875 4.359375 18.351562 4.359375 C 18.40625 4.359375 18.421875 4.421875 18.421875 4.625 C 18.425781 4.894531 18.519531 5.125 18.585938 5.015625 C 18.636719 4.929688 18.703125 5.011719 18.703125 5.160156 L 18.703125 5.296875 L 19.285156 5.296875 C 19.625 5.296875 19.878906 5.277344 19.898438 5.25 C 19.917969 5.21875 19.960938 5.222656 20.023438 5.253906 C 20.085938 5.289062 20.210938 5.296875 20.347656 5.277344 L 20.578125 5.246094 L 20.578125 5.53125 L 20.289062 5.539062 C 20.125 5.539062 19.960938 5.535156 19.921875 5.527344 C 19.882812 5.515625 19.476562 5.511719 19.023438 5.507812 L 18.1875 5.507812 L 18.1875 5.609375 C 18.1875 5.71875 18.1875 5.71875 17.367188 5.71875 C 16.523438 5.71875 16.335938 5.75 16.289062 5.910156 C 16.269531 5.957031 16.164062 6.078125 16.039062 6.183594 L 15.824219 6.371094 L 15.886719 6.710938 C 16.007812 7.363281 16.007812 7.332031 15.839844 7.40625 C 15.695312 7.472656 15.679688 7.503906 15.605469 7.867188 C 15.558594 8.078125 15.492188 8.292969 15.460938 8.339844 C 15.347656 8.503906 14.792969 8.90625 14.6875 8.90625 C 14.625 8.90625 14.578125 8.933594 14.578125 8.960938 C 14.578125 9.003906 14.570312 9.007812 14.539062 8.972656 C 14.523438 8.9375 14.371094 8.882812 14.203125 8.839844 C 14.035156 8.796875 13.65625 8.640625 13.355469 8.484375 L 12.804688 8.207031 L 12.753906 8.421875 C 12.722656 8.539062 12.703125 8.640625 12.710938 8.644531 C 12.722656 8.648438 12.789062 8.679688 12.859375 8.71875 C 13.140625 8.859375 13.171875 9.09375 13.058594 10.195312 C 12.992188 10.84375 12.976562 10.917969 12.828125 11.125 C 12.746094 11.25 12.722656 11.253906 12.511719 11.226562 C 12.296875 11.195312 12.285156 11.199219 12.253906 11.320312 C 12.191406 11.5625 12.308594 11.890625 12.578125 12.226562 C 13.082031 12.859375 13.265625 13.191406 13.671875 14.199219 C 13.8125 14.550781 13.96875 14.859375 14.015625 14.890625 C 14.070312 14.933594 14.109375 15.015625 14.109375 15.097656 C 14.109375 15.171875 14.140625 15.285156 14.179688 15.34375 C 14.234375 15.429688 14.242188 15.554688 14.203125 16.125 C 14.175781 16.5 14.132812 16.929688 14.105469 17.085938 C 14.078125 17.253906 14.066406 17.550781 14.085938 17.835938 C 14.113281 18.230469 14.105469 18.335938 14.042969 18.460938 C 13.929688 18.679688 13.9375 19.613281 14.058594 19.804688 C 14.25 20.125 14.65625 20.507812 14.886719 20.585938 C 15.015625 20.632812 15.1875 20.714844 15.273438 20.765625 C 15.398438 20.84375 15.421875 20.882812 15.421875 21.042969 C 15.421875 21.164062 15.398438 21.234375 15.347656 21.253906 C 15.304688 21.265625 14.984375 21.28125 14.628906 21.28125 C 14.15625 21.28125 13.917969 21.257812 13.730469 21.203125 C 13.574219 21.15625 13.308594 21.121094 13.046875 21.121094 C 12.445312 21.117188 12.441406 21.109375 12.5625 20.515625 C 12.613281 20.265625 12.679688 20.015625 12.707031 19.960938 C 12.789062 19.8125 12.722656 18.800781 12.628906 18.699219 C 12.59375 18.660156 12.5625 18.570312 12.5625 18.511719 C 12.5625 18.449219 12.539062 18.324219 12.515625 18.234375 C 12.441406 18 12.324219 16.828125 12.355469 16.714844 C 12.375 16.660156 12.414062 16.585938 12.449219 16.542969 C 12.484375 16.503906 12.523438 16.328125 12.542969 16.144531 C 12.566406 15.859375 12.5625 15.804688 12.472656 15.695312 C 12.390625 15.589844 12.347656 15.570312 12.234375 15.59375 C 11.957031 15.648438 11.84375 15.546875 11.339844 14.792969 C 11.070312 14.40625 10.832031 14.070312 10.808594 14.054688 C 10.78125 14.035156 10.6875 14.015625 10.609375 14.015625 C 10.472656 14.015625 10.4375 13.988281 10.316406 13.777344 L 10.179688 13.53125 L 10.078125 13.738281 C 10.015625 13.851562 9.914062 14.011719 9.84375 14.09375 C 9.699219 14.257812 9.328125 15.167969 9.328125 15.367188 C 9.324219 15.570312 9.207031 15.839844 9.074219 15.941406 C 9.003906 16 8.910156 16.117188 8.863281 16.210938 C 8.8125 16.308594 8.71875 16.433594 8.648438 16.5 C 8.457031 16.679688 8.347656 16.964844 8.359375 17.28125 C 8.367188 17.507812 8.335938 17.621094 8.1875 17.953125 C 8.085938 18.171875 7.945312 18.515625 7.875 18.722656 C 7.734375 19.101562 7.625 19.265625 7.515625 19.265625 C 7.4375 19.265625 7.28125 19.59375 7.191406 19.945312 C 7.105469 20.257812 7.109375 20.742188 7.199219 21.042969 C 7.238281 21.179688 7.265625 21.34375 7.257812 21.414062 C 7.242188 21.535156 7.226562 21.539062 6.859375 21.582031 C 6.417969 21.628906 5.980469 21.585938 5.882812 21.488281 C 5.757812 21.355469 5.796875 20.921875 6.027344 20.03125 C 6.210938 19.320312 6.234375 19.171875 6.191406 19.050781 C 6.089844 18.765625 6.125 18.496094 6.320312 18.132812 C 6.441406 17.90625 6.511719 17.695312 6.535156 17.515625 C 6.5625 17.242188 6.796875 16.707031 7.007812 16.425781 C 7.070312 16.34375 7.191406 16.144531 7.28125 15.976562 C 7.4375 15.6875 7.445312 15.652344 7.449219 15.207031 C 7.449219 14.933594 7.492188 14.464844 7.554688 14.078125 C 7.644531 13.5625 7.660156 13.398438 7.613281 13.339844 C 7.53125 13.226562 7.492188 12.851562 7.550781 12.742188 C 7.589844 12.671875 7.589844 12.636719 7.546875 12.609375 C 7.503906 12.585938 7.496094 12.507812 7.515625 12.378906 C 7.542969 12.15625 7.617188 12.046875 7.738281 12.046875 C 7.789062 12.046875 7.828125 12.03125 7.828125 12.007812 C 7.828125 11.992188 7.804688 11.796875 7.78125 11.578125 C 7.664062 10.601562 7.648438 10.351562 7.6875 10.25 C 7.710938 10.195312 7.730469 10.167969 7.734375 10.195312 C 7.738281 10.21875 7.757812 10.191406 7.777344 10.128906 C 7.796875 10.054688 7.867188 9.992188 7.96875 9.960938 L 8.132812 9.90625 L 7.835938 9.84375 C 7.65625 9.804688 7.527344 9.753906 7.5 9.703125 C 7.472656 9.652344 7.480469 9.40625 7.523438 9.042969 C 7.5625 8.722656 7.609375 8.3125 7.625 8.132812 L 7.664062 7.804688 L 7.945312 7.777344 C 8.4375 7.730469 8.421875 7.742188 8.382812 7.304688 C 8.320312 6.578125 8.46875 5.808594 8.769531 5.335938 C 8.949219 5.058594 9.273438 4.757812 9.5 4.664062 C 9.75 4.554688 10.144531 4.550781 10.257812 4.65625 C 10.328125 4.71875 10.355469 4.726562 10.421875 4.671875 C 10.492188 4.621094 10.492188 4.597656 10.429688 4.429688 C 10.222656 3.847656 10.484375 3.019531 10.988281 2.675781 C 11.492188 2.324219 11.90625 2.324219 12.5625 2.664062 Z M 12.5625 2.664062 "/>
<path style=" stroke:none;fill-rule:nonzero;fill:rgb(0%,0%,0%);fill-opacity:1;" d="M 14.675781 6.019531 C 14.644531 6.054688 14.625 6.117188 14.640625 6.148438 C 14.648438 6.183594 14.570312 6.265625 14.457031 6.34375 C 14.34375 6.414062 14.25 6.492188 14.25 6.515625 C 14.25 6.542969 14.304688 6.671875 14.371094 6.800781 C 14.488281 7.035156 14.492188 7.039062 14.585938 6.953125 C 14.644531 6.90625 14.773438 6.726562 14.886719 6.558594 C 15.054688 6.300781 15.085938 6.226562 15.050781 6.113281 C 15.023438 6.003906 14.984375 5.972656 14.875 5.960938 C 14.792969 5.953125 14.710938 5.976562 14.675781 6.019531 Z M 14.675781 6.019531 "/>
</g>
</svg>
