<?xml version="1.0" encoding="UTF-8"?>
<svg xmlns="http://www.w3.org/2000/svg" xmlns:xlink="http://www.w3.org/1999/xlink" width="24pt" height="24pt" viewBox="0 0 24 24" version="1.1">
<g id="surface1">
<path style=" stroke:none;fill-rule:nonzero;fill:rgb(0%,0%,0%);fill-opacity:1;" d="M 3.484375 0.0546875 C 3.335938 0.125 3.253906 0.347656 3.320312 0.496094 C 3.351562 0.558594 3.796875 1.097656 4.3125 1.6875 L 5.25 2.761719 L 5.25 4.527344 L 4.894531 4.824219 C 4.296875 5.324219 3.449219 6.3125 2.980469 7.050781 C 2.125 8.398438 1.597656 9.820312 1.351562 11.460938 C 1.261719 12.085938 1.273438 13.859375 1.375 14.460938 C 1.703125 16.351562 2.351562 17.902344 3.441406 19.34375 C 3.804688 19.832031 4.640625 20.71875 5.054688 21.0625 L 5.257812 21.230469 L 4.316406 22.308594 C 3.796875 22.902344 3.351562 23.441406 3.320312 23.503906 C 3.253906 23.65625 3.335938 23.875 3.496094 23.949219 C 3.582031 23.984375 5.773438 24 11.648438 24 L 19.683594 24 L 19.800781 23.898438 C 19.859375 23.835938 20.539062 23.023438 21.300781 22.085938 C 22.804688 20.246094 22.808594 20.230469 22.570312 19.992188 L 22.457031 19.875 L 20.007812 19.875 L 20.316406 19.503906 C 21.839844 17.679688 22.734375 15.210938 22.734375 12.847656 C 22.734375 10.054688 21.59375 7.304688 19.617188 5.320312 C 17.867188 3.566406 15.675781 2.5 13.210938 2.203125 C 12.757812 2.148438 11.453125 2.132812 11.328125 2.183594 C 11.253906 2.210938 11.25 2.132812 11.25 1.222656 C 11.25 0.230469 11.25 0.230469 11.132812 0.117188 L 11.019531 0 L 7.304688 0.00390625 C 4.800781 0.00390625 3.554688 0.0234375 3.484375 0.0546875 Z M 10.5 10.566406 C 10.5 20.160156 10.5 20.382812 10.589844 20.488281 L 10.679688 20.601562 L 16.09375 20.625 L 21.5 20.648438 L 20.441406 21.945312 L 19.382812 23.25 L 4.496094 23.25 L 4.953125 22.726562 C 5.207031 22.433594 5.550781 22.039062 5.710938 21.851562 L 6 21.511719 L 6 2.488281 L 5.25 1.617188 L 4.496094 0.75 L 10.5 0.75 Z M 13.738281 3.042969 C 15.789062 3.40625 17.570312 4.34375 19.058594 5.832031 C 20.675781 7.453125 21.640625 9.4375 21.914062 11.71875 C 22.257812 14.535156 21.304688 17.367188 19.289062 19.539062 L 18.976562 19.875 L 11.25 19.875 L 11.25 2.957031 L 11.40625 2.929688 C 11.875 2.855469 12.976562 2.90625 13.738281 3.042969 Z M 5.25 12.875 L 5.25 20.226562 L 4.871094 19.851562 C 3.683594 18.675781 2.78125 17.082031 2.339844 15.402344 C 2.140625 14.640625 2.0625 14.082031 2.03125 13.242188 C 1.925781 10.515625 2.898438 7.945312 4.777344 5.992188 C 5.015625 5.738281 5.222656 5.53125 5.230469 5.53125 C 5.242188 5.53125 5.25 8.835938 5.25 12.875 Z M 5.25 12.875 "/>
</g>
</svg>
