<?xml version="1.0" encoding="UTF-8"?>
<svg xmlns="http://www.w3.org/2000/svg" xmlns:xlink="http://www.w3.org/1999/xlink" width="24pt" height="24pt" viewBox="0 0 24 24" version="1.1">
<g id="surface1">
<path style=" stroke:none;fill-rule:nonzero;fill:rgb(0%,0%,0%);fill-opacity:1;" d="M 3.570312 1.183594 C 2.9375 1.285156 2.355469 1.539062 1.859375 1.929688 C 1.480469 2.234375 1.1875 2.601562 0.957031 3.0625 C 0.484375 4.011719 0.472656 5.058594 0.929688 6.007812 C 1.046875 6.257812 1.058594 6.289062 1.058594 6.515625 C 1.058594 7.09375 1.21875 8.355469 1.386719 9.121094 C 1.488281 9.59375 1.515625 9.714844 1.585938 9.976562 C 2.003906 11.566406 2.730469 13.316406 3.664062 14.980469 C 5.222656 17.765625 7.117188 19.90625 9.277344 21.332031 C 9.886719 21.734375 10.554688 22.101562 11.328125 22.460938 C 11.597656 22.582031 11.898438 22.722656 12.003906 22.773438 C 12.105469 22.820312 12.210938 22.859375 12.234375 22.859375 C 12.320312 22.859375 13.898438 22.097656 14.398438 21.816406 C 15.632812 21.117188 16.804688 20.1875 17.847656 19.074219 C 18.847656 18.007812 19.675781 16.890625 20.511719 15.484375 C 20.84375 14.929688 21.378906 13.925781 21.578125 13.476562 C 21.621094 13.382812 21.703125 13.207031 21.761719 13.082031 C 21.882812 12.808594 22.160156 12.136719 22.304688 11.75 C 22.832031 10.324219 23.171875 8.894531 23.34375 7.378906 C 23.417969 6.730469 23.402344 4.476562 23.324219 4.195312 C 23.308594 4.144531 22.664062 3.714844 22.230469 3.46875 C 20.492188 2.488281 18.097656 1.8125 15.386719 1.539062 C 14.632812 1.464844 14.242188 1.4375 13.261719 1.410156 C 11.925781 1.367188 10.59375 1.402344 9.371094 1.511719 C 8.480469 1.589844 7.292969 1.765625 6.574219 1.917969 L 6.308594 1.976562 L 6.160156 1.867188 C 5.769531 1.566406 5.375 1.382812 4.855469 1.25 C 4.550781 1.175781 3.859375 1.140625 3.570312 1.183594 Z M 4.671875 2.070312 C 4.765625 2.097656 4.953125 2.171875 5.082031 2.230469 L 5.320312 2.347656 L 5.417969 2.554688 C 5.65625 3.070312 5.6875 3.726562 5.484375 4.28125 C 5.457031 4.363281 5.441406 4.429688 5.445312 4.429688 C 5.453125 4.429688 5.429688 4.472656 5.390625 4.519531 C 5.355469 4.570312 5.292969 4.671875 5.25 4.742188 C 5.140625 4.929688 4.570312 5.480469 4.570312 5.398438 C 4.570312 5.386719 4.558594 5.390625 4.546875 5.40625 C 4.523438 5.445312 4.164062 5.628906 4.027344 5.667969 C 3.71875 5.761719 3.621094 5.777344 3.28125 5.769531 C 2.878906 5.761719 2.636719 5.707031 2.308594 5.542969 C 2.015625 5.394531 1.894531 5.3125 1.695312 5.117188 C 1.539062 4.964844 1.515625 4.921875 1.484375 4.78125 C 1.410156 4.410156 1.515625 3.851562 1.761719 3.382812 C 2.117188 2.691406 2.695312 2.25 3.484375 2.058594 C 3.75 1.992188 4.398438 2 4.671875 2.070312 Z M 13.601562 2.371094 C 15.382812 2.445312 16.863281 2.648438 18.328125 3.007812 C 18.835938 3.136719 19.714844 3.410156 19.980469 3.527344 L 20.113281 3.585938 L 20.113281 4.445312 C 20.113281 4.988281 20.101562 5.304688 20.085938 5.304688 C 20.070312 5.304688 19.929688 5.257812 19.78125 5.195312 C 19.449219 5.066406 19.046875 4.9375 18.96875 4.9375 C 18.921875 4.9375 18.914062 4.960938 18.914062 5.199219 C 18.914062 5.457031 18.898438 5.617188 18.8125 6.335938 C 18.734375 7.019531 18.707031 7.226562 18.679688 7.226562 C 18.667969 7.226562 18.65625 7.265625 18.65625 7.3125 C 18.65625 7.410156 18.511719 8.003906 18.429688 8.242188 C 18.398438 8.324219 18.359375 8.476562 18.339844 8.578125 C 18.320312 8.679688 18.289062 8.792969 18.265625 8.832031 C 18.246094 8.871094 18.230469 8.921875 18.230469 8.945312 C 18.230469 8.96875 18.1875 9.097656 18.140625 9.230469 C 18.089844 9.359375 18.015625 9.574219 17.964844 9.707031 C 17.921875 9.839844 17.867188 9.960938 17.855469 9.980469 C 17.839844 10 17.722656 10.011719 17.578125 10.015625 C 17.121094 10.023438 16.8125 10.101562 16.539062 10.277344 C 16.375 10.382812 16.363281 10.386719 16.25 10.355469 C 16.183594 10.335938 16.117188 10.308594 16.105469 10.296875 C 16.0625 10.265625 16.773438 9.859375 17.09375 9.738281 C 17.1875 9.703125 17.1875 9.683594 17.113281 9.585938 C 16.972656 9.410156 16.5625 9.257812 16.238281 9.257812 L 16.058594 9.257812 L 16.113281 9.144531 C 16.144531 9.085938 16.171875 9.015625 16.171875 8.996094 C 16.171875 8.976562 16.015625 8.808594 15.828125 8.621094 C 15.585938 8.382812 15.484375 8.261719 15.484375 8.21875 C 15.484375 8.175781 15.4375 8.109375 15.347656 8.027344 C 15.269531 7.957031 15.195312 7.867188 15.1875 7.832031 C 15.167969 7.753906 14.824219 7.457031 14.722656 7.433594 C 14.664062 7.417969 14.660156 7.410156 14.699219 7.335938 C 14.78125 7.183594 14.761719 7.152344 14.472656 6.980469 C 14.183594 6.8125 13.96875 6.730469 13.742188 6.699219 L 13.605469 6.683594 L 13.574219 6.789062 C 13.527344 6.960938 13.535156 7.023438 13.609375 7.050781 C 13.84375 7.144531 13.886719 7.164062 13.867188 7.210938 C 13.847656 7.269531 13.6875 7.246094 13.472656 7.152344 C 13.003906 6.949219 12.472656 6.847656 11.390625 6.746094 C 10.71875 6.6875 10.726562 6.683594 10.089844 6.910156 C 9.601562 7.089844 9.519531 7.105469 9.121094 7.125 L 8.746094 7.136719 L 8.609375 7.046875 C 8.453125 6.941406 7.671875 6.582031 7.546875 6.558594 C 7.480469 6.542969 7.453125 6.554688 7.402344 6.617188 C 7.371094 6.660156 7.34375 6.714844 7.34375 6.734375 C 7.34375 6.757812 7.3125 6.773438 7.269531 6.773438 C 7.214844 6.773438 7.1875 6.792969 7.167969 6.859375 C 7.148438 6.910156 7.117188 6.941406 7.089844 6.941406 C 7.046875 6.941406 6.824219 6.886719 6.691406 6.84375 C 6.667969 6.835938 6.71875 6.746094 6.832031 6.597656 C 7.046875 6.308594 7.289062 5.824219 7.382812 5.488281 C 7.621094 4.640625 7.515625 3.675781 7.113281 2.945312 L 7.027344 2.796875 L 7.179688 2.769531 C 8.179688 2.570312 9.457031 2.433594 10.957031 2.363281 C 11.40625 2.339844 13 2.34375 13.601562 2.371094 Z M 7.78125 6.804688 C 7.925781 6.855469 8.152344 6.945312 8.285156 7.007812 L 8.527344 7.121094 L 8.414062 7.144531 C 8.28125 7.175781 8.195312 7.164062 7.929688 7.089844 C 7.820312 7.058594 7.660156 7.023438 7.578125 7.011719 C 7.496094 7 7.421875 6.980469 7.410156 6.964844 C 7.378906 6.917969 7.429688 6.71875 7.476562 6.71875 C 7.5 6.71875 7.636719 6.757812 7.78125 6.804688 Z M 6.242188 7.011719 C 6.171875 7.144531 6.113281 7.277344 6.113281 7.308594 C 6.113281 7.347656 6.148438 7.382812 6.214844 7.414062 L 6.316406 7.460938 L 6.296875 7.703125 C 6.289062 7.835938 6.269531 7.957031 6.253906 7.96875 C 6.242188 7.984375 6.238281 8.050781 6.25 8.113281 C 6.257812 8.179688 6.25 8.257812 6.230469 8.292969 C 6.210938 8.332031 6.207031 8.355469 6.230469 8.367188 C 6.242188 8.375 6.257812 8.40625 6.257812 8.425781 C 6.257812 8.457031 6.222656 8.464844 6.140625 8.464844 L 6.019531 8.464844 L 6.039062 8.253906 C 6.058594 8.070312 6.050781 8.027344 6.011719 7.984375 C 5.96875 7.9375 5.964844 7.886719 5.980469 7.605469 C 5.992188 7.335938 6.007812 7.257812 6.070312 7.121094 C 6.175781 6.898438 6.261719 6.773438 6.320312 6.773438 C 6.359375 6.773438 6.347656 6.820312 6.242188 7.011719 Z M 11.132812 6.960938 C 11.398438 7.046875 11.644531 7.132812 11.6875 7.144531 C 11.75 7.167969 11.726562 7.1875 11.386719 7.386719 C 11.070312 7.574219 10.996094 7.605469 10.886719 7.605469 C 10.730469 7.601562 9.972656 7.367188 9.730469 7.246094 L 9.558594 7.160156 L 9.65625 7.117188 C 9.878906 7.027344 10.53125 6.808594 10.589844 6.804688 C 10.625 6.800781 10.867188 6.871094 11.132812 6.960938 Z M 6.921875 7.042969 C 7.074219 7.082031 7.09375 7.082031 7.125 7.042969 C 7.152344 7.003906 7.195312 7.011719 7.515625 7.09375 C 7.917969 7.203125 7.929688 7.191406 7.3125 7.285156 C 6.863281 7.351562 6.804688 7.378906 6.792969 7.539062 C 6.785156 7.621094 6.800781 7.636719 6.972656 7.742188 C 7.074219 7.804688 7.1875 7.863281 7.230469 7.875 L 7.300781 7.898438 L 7.222656 7.898438 C 7.125 7.902344 7.113281 7.925781 7.070312 8.152344 C 7.039062 8.316406 7.039062 8.335938 7.089844 8.382812 C 7.121094 8.414062 7.175781 8.4375 7.214844 8.4375 C 7.265625 8.4375 7.285156 8.453125 7.285156 8.496094 C 7.285156 8.53125 7.265625 8.550781 7.230469 8.550781 C 7.175781 8.550781 7.085938 8.480469 7.085938 8.4375 C 7.085938 8.40625 6.71875 8.203125 6.695312 8.222656 C 6.6875 8.230469 6.695312 8.277344 6.710938 8.328125 C 6.75 8.445312 6.753906 8.667969 6.714844 8.609375 C 6.691406 8.574219 6.6875 8.582031 6.6875 8.640625 C 6.6875 8.714844 6.675781 8.71875 6.570312 8.71875 L 6.449219 8.71875 L 6.464844 8.503906 C 6.476562 8.332031 6.472656 8.273438 6.441406 8.242188 C 6.410156 8.203125 6.40625 8.128906 6.421875 7.835938 C 6.445312 7.496094 6.453125 7.46875 6.570312 7.238281 C 6.632812 7.105469 6.703125 7 6.71875 7 C 6.734375 7 6.824219 7.019531 6.921875 7.042969 Z M 12.984375 7.355469 C 13.207031 7.378906 13.441406 7.410156 13.503906 7.429688 L 13.625 7.457031 L 13.753906 7.785156 C 13.871094 8.078125 13.972656 8.367188 13.972656 8.414062 C 13.972656 8.421875 13.652344 8.4375 13.265625 8.445312 C 12.875 8.457031 12.410156 8.480469 12.230469 8.496094 C 11.804688 8.539062 11.742188 8.519531 11.53125 8.269531 C 11.445312 8.164062 11.351562 8.03125 11.324219 7.976562 C 11.277344 7.878906 11.277344 7.875 11.332031 7.816406 C 11.398438 7.738281 11.945312 7.375 12.0625 7.328125 C 12.164062 7.285156 12.40625 7.292969 12.984375 7.355469 Z M 2.472656 7.613281 C 2.730469 7.742188 2.976562 7.835938 3.28125 7.90625 C 3.492188 7.960938 3.613281 7.96875 4.058594 7.96875 C 4.515625 7.96875 4.617188 7.960938 4.824219 7.90625 C 5.144531 7.820312 5.496094 7.691406 5.644531 7.605469 C 5.710938 7.566406 5.773438 7.546875 5.78125 7.558594 C 5.792969 7.570312 5.824219 7.703125 5.855469 7.847656 C 5.910156 8.097656 5.910156 8.121094 5.867188 8.25 C 5.835938 8.351562 5.824219 8.457031 5.835938 8.648438 C 5.851562 8.980469 5.933594 9.164062 6.195312 9.425781 C 6.421875 9.648438 6.621094 9.765625 6.921875 9.851562 C 7.121094 9.910156 7.164062 9.914062 7.335938 9.886719 C 7.453125 9.867188 7.617188 9.808594 7.753906 9.738281 L 7.980469 9.625 L 8.058594 9.679688 C 8.101562 9.707031 8.226562 9.753906 8.339844 9.777344 C 8.484375 9.8125 8.542969 9.839844 8.53125 9.863281 C 8.480469 9.996094 8.453125 10.28125 8.460938 10.535156 C 8.472656 10.789062 8.484375 10.847656 8.570312 11.011719 C 8.769531 11.421875 9.355469 11.847656 9.835938 11.933594 C 10.390625 12.035156 11.125 11.605469 11.429688 10.992188 C 11.5 10.851562 11.558594 10.734375 11.5625 10.726562 C 11.570312 10.722656 11.621094 10.75 11.675781 10.789062 C 11.738281 10.828125 11.863281 10.898438 11.957031 10.941406 C 12.101562 11.007812 12.160156 11.019531 12.34375 11.011719 C 12.460938 11.007812 12.613281 11.003906 12.6875 11 C 12.800781 11 12.871094 11.027344 13.285156 11.261719 C 13.644531 11.464844 13.855469 11.558594 14.171875 11.667969 L 14.585938 11.8125 L 14.605469 11.980469 C 14.664062 12.421875 14.824219 12.625 15.3125 12.859375 C 15.664062 13.03125 15.835938 13.0625 16.042969 13 C 16.226562 12.941406 16.25 12.941406 16.191406 13 C 16.128906 13.070312 15.972656 13.28125 15.886719 13.414062 C 15.824219 13.519531 15.667969 13.703125 15.550781 13.816406 C 15.515625 13.851562 15.484375 13.886719 15.484375 13.90625 C 15.484375 13.917969 15.433594 13.980469 15.371094 14.039062 C 15.308594 14.101562 15.257812 14.160156 15.257812 14.167969 C 15.257812 14.234375 13.835938 15.636719 13.636719 15.769531 C 13.609375 15.785156 13.589844 15.8125 13.59375 15.828125 C 13.601562 15.878906 13.535156 15.839844 13.1875 15.59375 C 12.21875 14.902344 10.949219 14.214844 9.84375 13.777344 C 8.78125 13.359375 7.8125 13.097656 6.585938 12.894531 C 4.472656 12.550781 3.40625 11.980469 2.910156 10.9375 C 2.652344 10.394531 2.230469 8.621094 2.101562 7.539062 L 2.082031 7.386719 L 2.175781 7.449219 C 2.230469 7.480469 2.363281 7.554688 2.472656 7.613281 Z M 10.085938 7.785156 C 10.085938 7.859375 10.003906 7.957031 9.941406 7.957031 C 9.886719 7.957031 9.886719 7.957031 9.945312 7.875 C 9.992188 7.816406 10.003906 7.773438 9.988281 7.714844 C 9.96875 7.636719 9.96875 7.636719 10.027344 7.6875 C 10.058594 7.71875 10.085938 7.761719 10.085938 7.785156 Z M 10.269531 7.746094 C 10.3125 7.785156 10.34375 7.839844 10.34375 7.871094 C 10.34375 7.9375 10.269531 8.015625 10.210938 8.015625 C 10.160156 8.015625 10.160156 7.992188 10.214844 7.941406 C 10.238281 7.917969 10.257812 7.859375 10.257812 7.816406 C 10.257812 7.742188 10.25 7.734375 10.171875 7.734375 C 10.125 7.734375 10.085938 7.71875 10.085938 7.703125 C 10.085938 7.652344 10.203125 7.675781 10.269531 7.746094 Z M 10.707031 7.886719 C 10.988281 7.992188 11.386719 8.179688 11.367188 8.203125 C 11.355469 8.207031 11.277344 8.199219 11.183594 8.179688 C 11.089844 8.160156 10.875 8.132812 10.699219 8.117188 L 10.386719 8.085938 L 10.378906 7.9375 C 10.367188 7.757812 10.367188 7.757812 10.707031 7.886719 Z M 9.792969 7.9375 C 9.78125 7.957031 9.777344 7.941406 9.777344 7.902344 C 9.777344 7.863281 9.78125 7.847656 9.792969 7.867188 C 9.796875 7.886719 9.796875 7.917969 9.792969 7.9375 Z M 14.417969 7.976562 C 14.507812 8.027344 14.632812 8.121094 14.695312 8.179688 C 14.804688 8.285156 15.046875 8.628906 15.027344 8.648438 C 15.007812 8.667969 14.308594 8.4375 14.261719 8.402344 C 14.238281 8.382812 14.175781 8.28125 14.121094 8.171875 L 14.023438 7.976562 L 14.085938 7.925781 C 14.175781 7.855469 14.222656 7.859375 14.417969 7.976562 Z M 9.738281 8.128906 C 10.132812 8.207031 10.222656 8.261719 10.453125 8.550781 L 10.652344 8.800781 L 10.863281 8.832031 C 11.070312 8.867188 11.074219 8.871094 11.25 9.054688 C 11.613281 9.425781 11.953125 9.898438 12.101562 10.234375 C 12.144531 10.324219 12.226562 10.429688 12.320312 10.511719 C 12.402344 10.585938 12.453125 10.640625 12.429688 10.632812 C 12.40625 10.625 12.222656 10.566406 12.023438 10.5 L 11.65625 10.378906 L 11.65625 10.175781 C 11.65625 9.808594 11.53125 9.480469 11.304688 9.25 C 10.960938 8.902344 10.410156 8.699219 9.882812 8.722656 C 9.589844 8.742188 9.3125 8.871094 9.019531 9.144531 L 8.804688 9.339844 L 8.625 9.328125 C 8.527344 9.320312 8.398438 9.304688 8.347656 9.300781 C 8.265625 9.289062 8.25 9.300781 8.199219 9.402344 C 8.167969 9.460938 8.132812 9.507812 8.121094 9.503906 C 8.109375 9.5 8.027344 9.523438 7.9375 9.550781 L 7.773438 9.605469 L 7.617188 9.542969 C 7.527344 9.503906 7.4375 9.484375 7.394531 9.496094 C 7.300781 9.519531 7.066406 9.460938 6.964844 9.390625 C 6.917969 9.359375 6.84375 9.28125 6.796875 9.21875 C 6.730469 9.128906 6.714844 9.078125 6.714844 8.953125 C 6.714844 8.769531 6.699219 8.769531 7.050781 9 L 7.3125 9.171875 L 7.410156 9.125 C 7.464844 9.097656 7.527344 9.042969 7.542969 9 C 7.5625 8.957031 7.601562 8.902344 7.632812 8.871094 C 7.660156 8.847656 7.6875 8.8125 7.6875 8.800781 C 7.6875 8.785156 7.628906 8.691406 7.558594 8.585938 C 7.429688 8.394531 7.398438 8.28125 7.453125 8.140625 C 7.472656 8.09375 7.503906 8.121094 7.652344 8.324219 C 7.75 8.453125 7.84375 8.582031 7.863281 8.613281 C 7.894531 8.660156 7.910156 8.660156 7.996094 8.632812 C 8.046875 8.617188 8.101562 8.609375 8.121094 8.617188 C 8.148438 8.625 8.171875 8.589844 8.195312 8.507812 C 8.242188 8.332031 8.355469 8.210938 8.464844 8.214844 C 8.546875 8.222656 8.546875 8.222656 8.484375 8.230469 C 8.386719 8.253906 8.34375 8.292969 8.28125 8.425781 C 8.214844 8.566406 8.210938 8.796875 8.277344 8.867188 C 8.304688 8.894531 8.308594 8.917969 8.292969 8.917969 C 8.25 8.917969 8.195312 8.84375 8.171875 8.742188 L 8.148438 8.648438 L 8.144531 8.75 C 8.144531 8.894531 8.21875 8.984375 8.398438 9.027344 C 8.539062 9.066406 8.546875 9.0625 8.660156 8.984375 C 8.871094 8.84375 8.953125 8.648438 8.878906 8.445312 C 8.855469 8.390625 8.867188 8.382812 8.992188 8.363281 C 9.164062 8.332031 9.710938 8.332031 9.910156 8.363281 C 10.054688 8.382812 10.058594 8.382812 10.027344 8.328125 C 9.996094 8.269531 9.925781 8.242188 9.429688 8.113281 C 9.195312 8.054688 9.179688 8.046875 9.3125 8.058594 C 9.398438 8.070312 9.589844 8.101562 9.738281 8.128906 Z M 6.792969 8.597656 C 6.785156 8.644531 6.78125 8.613281 6.78125 8.539062 C 6.78125 8.457031 6.785156 8.425781 6.792969 8.457031 C 6.796875 8.496094 6.796875 8.558594 6.792969 8.597656 Z M 6.878906 8.65625 C 6.871094 8.699219 6.867188 8.667969 6.867188 8.59375 C 6.867188 8.515625 6.871094 8.480469 6.878906 8.515625 C 6.882812 8.550781 6.882812 8.613281 6.878906 8.65625 Z M 6.96875 8.65625 C 6.964844 8.765625 6.960938 8.777344 6.941406 8.71875 C 6.910156 8.617188 6.910156 8.523438 6.941406 8.523438 C 6.960938 8.523438 6.972656 8.582031 6.96875 8.65625 Z M 7.035156 8.699219 C 7.039062 8.757812 7.035156 8.804688 7.023438 8.804688 C 7.011719 8.804688 7 8.746094 7.003906 8.667969 C 7.003906 8.523438 7.019531 8.535156 7.035156 8.699219 Z M 7.257812 8.75 C 7.257812 8.84375 7.242188 8.890625 7.214844 8.902344 C 7.179688 8.914062 7.171875 8.886719 7.171875 8.765625 C 7.171875 8.683594 7.179688 8.609375 7.1875 8.597656 C 7.230469 8.558594 7.257812 8.617188 7.257812 8.75 Z M 7.105469 8.796875 C 7.101562 8.84375 7.09375 8.8125 7.09375 8.734375 C 7.09375 8.65625 7.101562 8.621094 7.105469 8.65625 C 7.113281 8.691406 7.113281 8.753906 7.105469 8.796875 Z M 13.214844 8.707031 C 13.8125 8.722656 14.601562 8.8125 14.429688 8.84375 C 14.375 8.851562 14.179688 8.867188 14 8.875 C 13.398438 8.90625 12.84375 9.054688 12.539062 9.269531 C 12.457031 9.332031 12.382812 9.363281 12.378906 9.347656 C 12.367188 9.308594 12.074219 8.90625 11.976562 8.792969 L 11.90625 8.707031 L 12.144531 8.691406 C 12.277344 8.683594 12.453125 8.679688 12.527344 8.683594 C 12.609375 8.6875 12.917969 8.699219 13.214844 8.707031 Z M 11.613281 9.027344 C 11.769531 9.097656 12.0625 9.320312 12.152344 9.4375 L 12.226562 9.535156 L 12.128906 9.550781 C 12.074219 9.5625 12.003906 9.554688 11.980469 9.542969 C 11.953125 9.527344 11.792969 9.382812 11.628906 9.226562 C 11.3125 8.921875 11.3125 8.894531 11.613281 9.027344 Z M 15.921875 9.046875 L 16.050781 9.066406 L 16.007812 9.15625 C 15.96875 9.242188 15.957031 9.246094 15.699219 9.28125 C 15.195312 9.347656 14.644531 9.554688 14.613281 9.695312 C 14.601562 9.730469 14.601562 9.777344 14.613281 9.789062 C 14.621094 9.808594 14.613281 9.820312 14.589844 9.820312 C 14.53125 9.820312 14.527344 9.683594 14.578125 9.621094 C 14.664062 9.519531 15 9.371094 15.355469 9.273438 C 15.546875 9.21875 15.59375 9.199219 15.644531 9.121094 C 15.703125 9.027344 15.722656 9.023438 15.921875 9.046875 Z M 10.605469 9.699219 C 10.578125 9.746094 10.496094 9.859375 10.429688 9.960938 C 10.363281 10.0625 10.292969 10.152344 10.269531 10.167969 C 10.238281 10.183594 10.152344 10.140625 9.917969 9.972656 C 9.878906 9.941406 10.203125 9.714844 10.355469 9.65625 C 10.40625 9.640625 10.492188 9.625 10.550781 9.625 L 10.660156 9.625 Z M 11.089844 9.871094 C 11.175781 9.996094 11.230469 10.140625 11.230469 10.238281 L 11.230469 10.308594 L 10.921875 10.285156 C 10.75 10.277344 10.605469 10.257812 10.59375 10.246094 C 10.582031 10.238281 10.644531 10.109375 10.738281 9.960938 C 10.894531 9.695312 10.898438 9.6875 10.960938 9.726562 C 10.996094 9.75 11.054688 9.816406 11.089844 9.871094 Z M 15.570312 10.207031 L 15.757812 10.289062 L 15.613281 10.339844 C 15.539062 10.367188 15.429688 10.410156 15.375 10.4375 C 15.277344 10.488281 15.269531 10.488281 15.046875 10.421875 C 14.917969 10.386719 14.726562 10.328125 14.613281 10.296875 C 14.304688 10.207031 14.296875 10.1875 14.5 9.996094 L 14.671875 9.835938 L 15.027344 9.980469 C 15.226562 10.058594 15.46875 10.160156 15.570312 10.207031 Z M 9.910156 10.355469 C 9.972656 10.414062 10.027344 10.480469 10.027344 10.5 C 10.027344 10.523438 9.945312 10.660156 9.847656 10.804688 L 9.664062 11.066406 L 9.632812 10.976562 C 9.613281 10.925781 9.601562 10.824219 9.601562 10.753906 C 9.601562 10.589844 9.703125 10.246094 9.75 10.246094 C 9.769531 10.246094 9.839844 10.296875 9.910156 10.355469 Z M 14.269531 10.429688 C 14.347656 10.46875 14.425781 10.5 14.449219 10.5 C 14.46875 10.5 14.484375 10.511719 14.484375 10.519531 C 14.484375 10.539062 14.195312 10.875 14.03125 11.042969 C 14.011719 11.0625 13.597656 10.96875 13.53125 10.925781 C 13.507812 10.914062 14.074219 10.359375 14.113281 10.359375 C 14.121094 10.359375 14.191406 10.386719 14.269531 10.429688 Z M 17.574219 10.472656 L 17.644531 10.5 L 17.402344 10.976562 C 17.269531 11.242188 17.152344 11.453125 17.148438 11.445312 C 17.144531 11.4375 17.132812 11.363281 17.128906 11.28125 C 17.113281 11.027344 17.019531 10.832031 16.839844 10.671875 C 16.75 10.589844 16.667969 10.527344 16.652344 10.527344 C 16.640625 10.527344 16.628906 10.515625 16.628906 10.5 C 16.628906 10.472656 16.863281 10.417969 17.027344 10.40625 C 17.160156 10.398438 17.480469 10.4375 17.574219 10.472656 Z M 11.199219 10.609375 C 11.199219 10.703125 11.03125 10.988281 10.890625 11.125 C 10.820312 11.203125 10.75 11.261719 10.738281 11.261719 C 10.710938 11.261719 10.539062 10.703125 10.546875 10.644531 C 10.558594 10.605469 10.601562 10.59375 10.800781 10.582031 C 10.933594 10.570312 11.078125 10.5625 11.121094 10.5625 C 11.179688 10.554688 11.199219 10.566406 11.199219 10.609375 Z M 15.023438 10.710938 C 15.027344 10.714844 14.964844 10.816406 14.886719 10.9375 C 14.808594 11.058594 14.730469 11.203125 14.707031 11.265625 C 14.675781 11.375 14.675781 11.375 14.558594 11.355469 C 14.496094 11.347656 14.410156 11.324219 14.363281 11.304688 L 14.285156 11.273438 L 14.558594 10.957031 L 14.828125 10.640625 L 14.921875 10.671875 C 14.972656 10.691406 15.015625 10.707031 15.023438 10.710938 Z M 10.367188 11.097656 L 10.480469 11.386719 L 10.378906 11.410156 C 10.171875 11.457031 9.769531 11.335938 9.820312 11.25 C 9.90625 11.105469 10.164062 10.808594 10.203125 10.808594 C 10.238281 10.808594 10.285156 10.894531 10.367188 11.097656 Z M 16.484375 11.128906 C 16.484375 11.152344 16.167969 11.527344 16.148438 11.539062 C 16.136719 11.539062 16.113281 11.515625 16.089844 11.480469 C 16.050781 11.421875 16.058594 11.410156 16.195312 11.285156 C 16.277344 11.210938 16.371094 11.144531 16.40625 11.140625 C 16.441406 11.132812 16.472656 11.125 16.480469 11.121094 C 16.484375 11.121094 16.484375 11.125 16.484375 11.128906 Z M 16.789062 11.464844 L 16.808594 11.597656 L 16.589844 11.597656 C 16.46875 11.597656 16.371094 11.589844 16.371094 11.574219 C 16.371094 11.5625 16.4375 11.464844 16.515625 11.359375 L 16.664062 11.171875 L 16.71875 11.253906 C 16.75 11.296875 16.78125 11.394531 16.789062 11.464844 Z M 17.144531 11.609375 C 17.144531 11.617188 17.132812 11.632812 17.113281 11.640625 C 17.101562 11.648438 17.085938 11.644531 17.085938 11.628906 C 17.085938 11.613281 17.101562 11.597656 17.113281 11.597656 C 17.132812 11.597656 17.144531 11.605469 17.144531 11.609375 Z M 15.871094 12.015625 C 15.824219 12.125 15.78125 12.183594 15.769531 12.164062 C 15.75 12.128906 15.796875 11.894531 15.855469 11.753906 L 15.890625 11.667969 L 15.921875 11.75 C 15.941406 11.816406 15.933594 11.863281 15.871094 12.015625 Z M 16.683594 12 C 16.605469 12.15625 16.453125 12.359375 16.414062 12.359375 C 16.378906 12.359375 16.273438 11.949219 16.300781 11.910156 C 16.308594 11.894531 16.414062 11.882812 16.53125 11.882812 L 16.742188 11.882812 Z M 16.144531 12.335938 C 16.171875 12.433594 16.191406 12.519531 16.1875 12.527344 C 16.152344 12.554688 15.921875 12.542969 15.878906 12.507812 C 15.835938 12.472656 15.84375 12.453125 15.933594 12.269531 C 16.046875 12.046875 16.050781 12.046875 16.144531 12.335938 Z M 5.984375 14.179688 C 6.96875 14.257812 7.675781 14.371094 8.632812 14.605469 C 9.082031 14.714844 9.148438 14.734375 9.8125 14.949219 C 10.550781 15.1875 11.105469 15.410156 11.8125 15.757812 C 12.316406 16.003906 12.71875 16.230469 12.695312 16.261719 C 12.6875 16.273438 12.699219 16.277344 12.71875 16.269531 C 12.738281 16.265625 12.78125 16.277344 12.8125 16.296875 C 12.855469 16.328125 12.855469 16.347656 12.835938 16.378906 C 12.8125 16.398438 12.8125 16.425781 12.824219 16.4375 C 12.835938 16.449219 12.828125 16.453125 12.8125 16.449219 C 12.777344 16.4375 12.601562 16.542969 12.378906 16.714844 C 12.28125 16.785156 12.195312 16.847656 12.183594 16.847656 C 12.164062 16.847656 11.84375 17.042969 11.589844 17.203125 C 11.515625 17.253906 11.28125 17.378906 11.0625 17.488281 C 10.847656 17.59375 10.664062 17.691406 10.65625 17.699219 C 10.644531 17.710938 10.261719 17.894531 10.058594 17.984375 C 9.753906 18.117188 9.589844 18.179688 9.550781 18.164062 C 9.527344 18.15625 9.515625 18.15625 9.527344 18.167969 C 9.539062 18.195312 9.414062 18.257812 9.167969 18.339844 C 9.082031 18.371094 8.886719 18.441406 8.730469 18.496094 C 8.570312 18.554688 8.421875 18.597656 8.390625 18.597656 C 8.367188 18.597656 8.320312 18.609375 8.292969 18.625 C 8.265625 18.636719 8.164062 18.667969 8.070312 18.695312 C 7.976562 18.726562 7.867188 18.757812 7.824219 18.773438 C 7.726562 18.808594 7.6875 18.785156 7.46875 18.5625 C 6.933594 18.019531 6.324219 17.292969 5.851562 16.636719 C 5.320312 15.902344 4.667969 14.867188 4.640625 14.710938 C 4.585938 14.425781 4.773438 14.238281 5.175781 14.171875 C 5.394531 14.136719 5.386719 14.136719 5.984375 14.179688 Z M 5.984375 14.179688 "/>
</g>
</svg>
