<?xml version="1.0" encoding="UTF-8"?>
<svg xmlns="http://www.w3.org/2000/svg" xmlns:xlink="http://www.w3.org/1999/xlink" width="24pt" height="24pt" viewBox="0 0 24 24" version="1.1">
<g id="surface1">
<path style=" stroke:none;fill-rule:nonzero;fill:rgb(0%,0%,0%);fill-opacity:1;" d="M 2.695312 5.316406 C 2.523438 5.394531 2.367188 5.558594 2.300781 5.734375 C 2.226562 5.929688 2.234375 12.121094 2.3125 12.289062 C 2.34375 12.359375 3.757812 13.984375 5.457031 15.894531 C 7.640625 18.351562 8.59375 19.386719 8.699219 19.433594 C 8.929688 19.527344 13.570312 19.53125 13.796875 19.433594 C 14.125 19.296875 14.3125 18.910156 14.21875 18.558594 C 14.183594 18.4375 12.695312 16.59375 8.835938 11.910156 C 5.902344 8.347656 3.449219 5.394531 3.390625 5.359375 C 3.234375 5.253906 2.867188 5.230469 2.695312 5.316406 Z M 7.78125 12.984375 C 9.957031 15.628906 11.773438 17.835938 11.828125 17.890625 L 11.921875 18 L 9.335938 18 L 6.542969 14.855469 L 3.75 11.714844 L 3.75 9.898438 C 3.75 8.882812 3.769531 8.109375 3.792969 8.132812 C 3.8125 8.160156 5.609375 10.339844 7.78125 12.984375 Z M 7.78125 12.984375 "/>
<path style=" stroke:none;fill-rule:nonzero;fill:rgb(0%,0%,0%);fill-opacity:1;" d="M 20.671875 5.328125 C 20.421875 5.457031 13.5625 13.855469 13.519531 14.085938 C 13.453125 14.445312 13.636719 14.804688 13.953125 14.933594 C 14.179688 15.03125 18.824219 15.027344 19.046875 14.933594 C 19.128906 14.898438 19.757812 14.300781 20.445312 13.613281 C 21.488281 12.5625 21.703125 12.324219 21.726562 12.1875 C 21.742188 12.097656 21.75 10.609375 21.742188 8.875 C 21.726562 5.78125 21.726562 5.722656 21.628906 5.597656 C 21.390625 5.277344 20.992188 5.164062 20.671875 5.328125 Z M 19.34375 12.601562 L 18.445312 13.5 L 17.148438 13.492188 L 15.851562 13.476562 L 18.039062 10.804688 L 20.226562 8.128906 L 20.242188 9.914062 L 20.25 11.695312 Z M 19.34375 12.601562 "/>
</g>
</svg>
